<?xml version="1.0" encoding="UTF-8" standalone="no"?><!DOCTYPE svg PUBLIC "-//W3C//DTD SVG 1.1//EN" "http://www.w3.org/Graphics/SVG/1.1/DTD/svg11.dtd"><svg width="100%" height="100%" viewBox="0 0 528 606" version="1.1" xmlns="http://www.w3.org/2000/svg" xmlns:xlink="http://www.w3.org/1999/xlink" xml:space="preserve" xmlns:serif="http://www.serif.com/" style="fill-rule:evenodd;clip-rule:evenodd;stroke-linejoin:round;stroke-miterlimit:2;"><rect id="background-butterfly" serif:id="background butterfly" x="-0" y="-0" width="528" height="606" style="fill:none;"/><g id="Layer3"></g><g><g><path d="M318.257,307.803c-8.733,17.498 68.485,79.993 102.631,88.782c12.814,3.297 35.794,7.219 67.881,-48.656c12.629,-21.992 12.165,-45.828 12.163,-62.16c-0.001,-9.598 -0.819,-21.792 -6.757,-25.786c-13.498,-9.08 -38.564,-36.311 -138.886,13.972c-14.544,7.29 -29.637,19.031 -37.032,33.848Z" style="fill:#F5AD55;"/><path d="M326.366,321.833c-11.122,6.102 -28.597,-55.292 -30.939,-162.505c-1.575,-72.134 35.735,-116.481 45.773,-128.152c10.551,-12.268 28.637,-7.261 37.203,2.353c16.117,18.088 5.715,50.352 20.451,69.743c20.162,26.529 36.812,34.536 45.191,75.971c8.273,40.913 -21.557,45.552 -45.263,73.69c-11.277,13.384 -64.327,64.463 -72.416,68.9Z" style="fill:#F5AD55;"/></g><g><path d="M319.549,317.456c19.357,2.307 30.603,99.835 19.749,132.73c-4.073,12.344 -13.051,33.4 -77.109,29.493c-25.211,-1.538 -44.98,-14.86 -58.694,-23.729c-8.059,-5.212 -17.862,-12.506 -18.046,-19.565c-0.417,-16.047 -9.899,-51.476 85.899,-106.804c13.889,-8.022 31.809,-14.078 48.201,-12.125Z" style="fill:#F5AD55;"/><path d="M327,331.752c11.063,-5.848 -31.161,-53.572 -119.944,-113.707c-59.735,-40.46 -116.9,-33.806 -132.061,-31.875c-15.938,2.03 -21.391,19.644 -17.891,31.918c6.583,23.095 39.232,32.044 47.646,54.709c11.512,31.009 9.345,49.069 39.666,78.465c29.939,29.027 49.765,6.975 86.053,2.727c17.262,-2.021 88.485,-17.984 96.531,-22.237Z" style="fill:#F5AD55;"/></g></g></svg>