<svg width="24" height="24" viewBox="0 0 24 24" fill="none" xmlns="http://www.w3.org/2000/svg">
<g clip-path="url(#clip0)">
<ellipse cx="11.8835" cy="12" rx="11.8835" ry="12" fill="#F5AD55"/>
<path fill-rule="evenodd" clip-rule="evenodd" d="M12.1 6.96912C12.169 6.89927 12.251 6.84386 12.3412 6.80605C12.4315 6.76824 12.5282 6.74878 12.6259 6.74878C12.7236 6.74878 12.8203 6.76824 12.9105 6.80605C13.0008 6.84386 13.0827 6.89927 13.1517 6.96912L17.608 11.4691C17.6772 11.5388 17.7321 11.6216 17.7695 11.7127C17.807 11.8038 17.8262 11.9015 17.8262 12.0001C17.8262 12.0988 17.807 12.1965 17.7695 12.2876C17.7321 12.3787 17.6772 12.4615 17.608 12.5311L13.1517 17.0311C13.0123 17.1719 12.8231 17.2511 12.6259 17.2511C12.4287 17.2511 12.2395 17.1719 12.1 17.0311C11.9606 16.8903 11.8822 16.6993 11.8822 16.5001C11.8822 16.301 11.9606 16.1099 12.1 15.9691L15.3348 12.7039C15.7209 12.3141 15.7209 11.6861 15.3348 11.2963L12.1 8.03112C12.0309 7.96145 11.976 7.87869 11.9386 7.78757C11.9011 7.69645 11.8818 7.59877 11.8818 7.50012C11.8818 7.40147 11.9011 7.30379 11.9386 7.21267C11.976 7.12155 12.0309 7.03879 12.1 6.96912Z" fill="white"/>
<path fill-rule="evenodd" clip-rule="evenodd" d="M5.94141 12C5.94141 11.8011 6.01966 11.6103 6.15894 11.4697C6.29823 11.329 6.48714 11.25 6.68412 11.25H16.3395C16.5364 11.25 16.7254 11.329 16.8646 11.4697C17.0039 11.6103 17.0822 11.8011 17.0822 12C17.0822 12.1989 17.0039 12.3897 16.8646 12.5303C16.7254 12.671 16.5364 12.75 16.3395 12.75H6.68412C6.48714 12.75 6.29823 12.671 6.15894 12.5303C6.01966 12.3897 5.94141 12.1989 5.94141 12Z" fill="white"/>
</g>
<defs>
<clipPath id="clip0">
<rect width="23.767" height="24" fill="white"/>
</clipPath>
</defs>
</svg>
