<?xml version="1.0" encoding="UTF-8" standalone="no"?><!DOCTYPE svg PUBLIC "-//W3C//DTD SVG 1.1//EN" "http://www.w3.org/Graphics/SVG/1.1/DTD/svg11.dtd"><svg width="100%" height="100%" viewBox="0 0 528 606" version="1.1" xmlns="http://www.w3.org/2000/svg" xmlns:xlink="http://www.w3.org/1999/xlink" xml:space="preserve" xmlns:serif="http://www.serif.com/" style="fill-rule:evenodd;clip-rule:evenodd;stroke-linejoin:round;stroke-miterlimit:2;"><rect id="background-butterfly" serif:id="background butterfly" x="-0" y="-0" width="528" height="606" style="fill:none;"/><g id="Layer3"></g><g><g><path d="M238.767,307.803c8.733,17.498 -68.486,79.993 -102.631,88.782c-12.814,3.297 -35.794,7.219 -67.882,-48.656c-12.629,-21.992 -12.165,-45.828 -12.162,-62.16c0.001,-9.598 0.819,-21.792 6.757,-25.786c13.498,-9.08 38.564,-36.311 138.885,13.972c14.545,7.29 29.638,19.031 37.033,33.848Z" style="fill:#F5AD55;"/><path d="M230.658,321.833c11.122,6.102 28.597,-55.292 30.938,-162.505c1.576,-72.134 -35.734,-116.481 -45.772,-128.152c-10.552,-12.268 -28.637,-7.261 -37.203,2.353c-16.117,18.088 -5.715,50.352 -20.452,69.743c-20.162,26.529 -36.811,34.536 -45.19,75.971c-8.274,40.913 21.557,45.552 45.263,73.69c11.276,13.384 64.327,64.463 72.416,68.9Z" style="fill:#F5AD55;"/></g><g><path d="M237.475,317.456c-19.358,2.307 -30.604,99.835 -19.75,132.73c4.074,12.344 13.052,33.4 77.109,29.493c25.212,-1.538 44.981,-14.86 58.695,-23.729c8.059,-5.212 17.862,-12.506 18.046,-19.565c0.417,-16.047 9.899,-51.476 -85.9,-106.804c-13.889,-8.022 -31.808,-14.078 -48.2,-12.125Z" style="fill:#F5AD55;"/><path d="M230.023,331.752c-11.062,-5.848 31.162,-53.572 119.945,-113.707c59.735,-40.46 116.9,-33.806 132.061,-31.875c15.937,2.03 21.39,19.644 17.891,31.918c-6.584,23.095 -39.233,32.044 -47.647,54.709c-11.511,31.009 -9.344,49.069 -39.666,78.465c-29.939,29.027 -49.764,6.975 -86.052,2.727c-17.262,-2.021 -88.486,-17.984 -96.532,-22.237Z" style="fill:#F5AD55;"/></g></g></svg>