<?xml version="1.0" encoding="UTF-8" standalone="no"?><!DOCTYPE svg PUBLIC "-//W3C//DTD SVG 1.1//EN" "http://www.w3.org/Graphics/SVG/1.1/DTD/svg11.dtd"><svg width="100%" height="100%" viewBox="0 0 1440 900" version="1.1" xmlns="http://www.w3.org/2000/svg" xmlns:xlink="http://www.w3.org/1999/xlink" xml:space="preserve" xmlns:serif="http://www.serif.com/" style="fill-rule:evenodd;clip-rule:evenodd;stroke-linejoin:round;stroke-miterlimit:2;"><rect id="grass" x="0" y="0" width="1440" height="900" style="fill:none;"/><clipPath id="_clip1"><rect x="0" y="0" width="1440" height="900"/></clipPath><g clip-path="url(#_clip1)"><path d="M0,899c0,-0 1024.12,2.924 1441,-0l0,-349c-55.089,-19.077 -252.108,-115.279 -741,-130c-357.338,-10.76 -700,120 -700,120l0,359Z" style="fill:url(#_Linear2);"/><clipPath id="_clip3"><path d="M0,899c0,-0 1024.12,2.924 1441,-0l0,-349c-55.089,-19.077 -252.108,-115.279 -741,-130c-357.338,-10.76 -700,120 -700,120l0,359Z"/></clipPath><g clip-path="url(#_clip3)"><g><g><path d="M980.353,660.003c1.739,-0.118 3.225,0.864 3.315,2.191c0.09,1.328 -1.249,2.502 -2.989,2.62c-1.74,0.118 -3.225,-0.864 -3.316,-2.192c-0.09,-1.327 1.25,-2.501 2.99,-2.619Z" style="fill:#1a7950;"/><path d="M1001.58,662.35c1.74,-0.118 3.226,0.864 3.316,2.192c0.09,1.328 -1.249,2.501 -2.989,2.62c-1.74,0.118 -3.226,-0.864 -3.316,-2.192c-0.09,-1.328 1.249,-2.502 2.989,-2.62Z" style="fill:#1a7950;"/></g><g><path d="M458.941,598.614c1.269,0.928 1.377,2.492 0.241,3.489c-1.137,0.998 -3.09,1.054 -4.359,0.126c-1.269,-0.928 -1.377,-2.492 -0.24,-3.489c1.136,-0.998 3.089,-1.054 4.358,-0.126Z" style="fill:#1a7950;"/><path d="M448.638,612.718c1.269,0.929 1.376,2.492 0.24,3.49c-1.137,0.997 -3.09,1.053 -4.359,0.125c-1.269,-0.928 -1.376,-2.491 -0.24,-3.489c1.137,-0.997 3.09,-1.054 4.359,-0.126Z" style="fill:#1a7950;"/><path d="M471.008,612.633c1.269,0.928 1.377,2.492 0.241,3.489c-1.137,0.998 -3.09,1.054 -4.359,0.126c-1.269,-0.928 -1.377,-2.491 -0.24,-3.489c1.136,-0.998 3.089,-1.054 4.358,-0.126Z" style="fill:#1a7950;"/></g><g><path d="M221.57,751.773c1.032,-1.178 2.674,-1.227 3.666,-0.11c0.992,1.117 0.959,2.98 -0.072,4.159c-1.032,1.178 -2.675,1.227 -3.666,0.11c-0.992,-1.117 -0.959,-2.981 0.072,-4.159Z" style="fill:#1a7950;"/><path d="M235.861,762.074c1.032,-1.178 2.674,-1.228 3.666,-0.111c0.992,1.117 0.959,2.981 -0.072,4.159c-1.032,1.178 -2.675,1.228 -3.666,0.111c-0.992,-1.118 -0.959,-2.981 0.072,-4.159Z" style="fill:#1a7950;"/><path d="M236.819,740.747c1.032,-1.178 2.675,-1.228 3.666,-0.11c0.992,1.117 0.96,2.98 -0.072,4.158c-1.032,1.179 -2.674,1.228 -3.666,0.111c-0.992,-1.117 -0.959,-2.981 0.072,-4.159Z" style="fill:#1a7950;"/></g><g><path d="M812.786,778.267c1.725,0.151 2.941,1.35 2.712,2.675c-0.229,1.324 -1.816,2.277 -3.542,2.125c-1.726,-0.151 -2.941,-1.35 -2.712,-2.674c0.229,-1.325 1.816,-2.278 3.542,-2.126Z" style="fill:#1a7950;"/><path d="M834.167,802.163c1.726,0.151 2.941,1.35 2.712,2.674c-0.229,1.325 -1.816,2.277 -3.542,2.126c-1.726,-0.151 -2.941,-1.35 -2.712,-2.675c0.229,-1.324 1.816,-2.277 3.542,-2.125Z" style="fill:#1a7950;"/><path d="M830.35,768.093c1.726,0.151 2.941,1.35 2.712,2.675c-0.229,1.324 -1.816,2.277 -3.541,2.125c-1.726,-0.151 -2.941,-1.35 -2.712,-2.674c0.229,-1.325 1.816,-2.278 3.541,-2.126Z" style="fill:#1a7950;"/><path d="M814.353,794.318c1.725,0.151 2.941,1.35 2.712,2.675c-0.229,1.324 -1.816,2.277 -3.542,2.125c-1.726,-0.151 -2.941,-1.349 -2.712,-2.674c0.229,-1.325 1.816,-2.277 3.542,-2.126Z" style="fill:#1a7950;"/><path d="M832.934,783.854c1.726,0.152 2.941,1.35 2.712,2.675c-0.229,1.325 -1.816,2.277 -3.542,2.126c-1.725,-0.152 -2.941,-1.35 -2.712,-2.675c0.229,-1.324 1.816,-2.277 3.542,-2.126Z" style="fill:#1a7950;"/></g><g><path d="M8.504,849.153c1.026,1.106 0.771,2.667 -0.57,3.484c-1.34,0.817 -3.262,0.582 -4.288,-0.525c-1.025,-1.106 -0.77,-2.667 0.571,-3.484c1.34,-0.816 3.261,-0.581 4.287,0.525Z" style="fill:#1a7950;"/><path d="M17.062,864.805c1.026,1.106 0.77,2.667 -0.57,3.484c-1.341,0.816 -3.262,0.581 -4.288,-0.525c-1.026,-1.106 -0.771,-2.667 0.57,-3.484c1.34,-0.817 3.262,-0.582 4.288,0.525Z" style="fill:#1a7950;"/></g><g><path d="M428.47,804.512c-1.673,-0.349 -2.657,-1.681 -2.194,-2.971c0.462,-1.29 2.196,-2.054 3.869,-1.705c1.674,0.35 2.657,1.681 2.195,2.972c-0.463,1.29 -2.196,2.054 -3.87,1.704Z" style="fill:#1a7950;"/><path d="M429.794,788.377c-1.674,-0.349 -2.657,-1.681 -2.195,-2.971c0.462,-1.29 2.196,-2.054 3.87,-1.705c1.673,0.35 2.656,1.681 2.194,2.972c-0.462,1.29 -2.196,2.054 -3.869,1.704Z" style="fill:#1a7950;"/><path d="M409.615,796.635c-1.673,-0.35 -2.656,-1.681 -2.194,-2.971c0.462,-1.291 2.196,-2.054 3.869,-1.705c1.674,0.35 2.657,1.681 2.195,2.971c-0.462,1.291 -2.196,2.054 -3.87,1.705Z" style="fill:#1a7950;"/><path d="M588.928,730.899c-1.673,-0.35 -2.656,-1.681 -2.194,-2.972c0.462,-1.29 2.196,-2.054 3.869,-1.704c1.674,0.349 2.657,1.681 2.195,2.971c-0.462,1.29 -2.196,2.054 -3.87,1.705Z" style="fill:#1a7950;"/></g><g><path d="M1265.23,660.451c0.813,-1.257 2.664,-1.802 4.131,-1.216c1.467,0.586 1.998,2.082 1.185,3.34c-0.813,1.257 -2.664,1.802 -4.131,1.216c-1.467,-0.586 -1.998,-2.083 -1.185,-3.34Z" style="fill:#1a7950;"/><path d="M1284.61,664.271c0.813,-1.258 2.664,-1.803 4.131,-1.216c1.467,0.586 1.998,2.082 1.185,3.339c-0.813,1.258 -2.664,1.803 -4.131,1.217c-1.467,-0.586 -1.998,-2.083 -1.185,-3.34Z" style="fill:#1a7950;"/><path d="M1279.2,646.963c0.813,-1.258 2.664,-1.802 4.131,-1.216c1.467,0.586 1.997,2.082 1.184,3.34c-0.813,1.257 -2.664,1.802 -4.131,1.216c-1.467,-0.586 -1.997,-2.083 -1.184,-3.34Z" style="fill:#1a7950;"/></g><g><path d="M1062.96,756.149c0.813,-1.257 2.664,-1.802 4.131,-1.216c1.467,0.586 1.998,2.082 1.185,3.34c-0.813,1.257 -2.664,1.802 -4.131,1.216c-1.467,-0.586 -1.998,-2.083 -1.185,-3.34Z" style="fill:#1a7950;"/><path d="M1082.33,759.969c0.813,-1.258 2.664,-1.803 4.131,-1.216c1.467,0.586 1.998,2.082 1.185,3.339c-0.813,1.258 -2.664,1.803 -4.131,1.217c-1.467,-0.587 -1.998,-2.083 -1.185,-3.34Z" style="fill:#1a7950;"/><path d="M1076.93,742.661c0.813,-1.258 2.664,-1.802 4.131,-1.216c1.467,0.586 1.997,2.082 1.184,3.34c-0.813,1.257 -2.664,1.802 -4.131,1.216c-1.467,-0.586 -1.997,-2.083 -1.184,-3.34Z" style="fill:#1a7950;"/></g></g><g><g><path d="M339.396,568.094c-1.744,0.019 -3.172,-1.046 -3.186,-2.377c-0.014,-1.331 1.39,-2.427 3.133,-2.446c1.744,-0.019 3.171,1.047 3.186,2.377c0.014,1.331 -1.39,2.427 -3.133,2.446Z" style="fill:#1a7950;"/><path d="M318.339,564.543c-1.744,0.019 -3.171,-1.046 -3.186,-2.377c-0.014,-1.331 1.39,-2.427 3.133,-2.446c1.744,-0.019 3.172,1.046 3.186,2.377c0.015,1.331 -1.389,2.427 -3.133,2.446Z" style="fill:#1a7950;"/></g><g><path d="M856.47,659.049c-1.215,-0.999 -1.233,-2.566 -0.042,-3.498c1.192,-0.931 3.145,-0.876 4.359,0.123c1.214,0.999 1.233,2.566 0.041,3.497c-1.191,0.931 -3.144,0.876 -4.358,-0.122Z" style="fill:#1a7950;"/><path d="M867.559,645.553c-1.214,-0.999 -1.233,-2.566 -0.041,-3.497c1.191,-0.931 3.144,-0.876 4.358,0.122c1.214,0.999 1.233,2.566 0.042,3.498c-1.192,0.931 -3.145,0.876 -4.359,-0.123Z" style="fill:#1a7950;"/><path d="M845.22,644.365c-1.215,-0.998 -1.233,-2.566 -0.042,-3.497c1.192,-0.931 3.145,-0.876 4.359,0.123c1.214,0.999 1.233,2.566 0.041,3.497c-1.191,0.931 -3.144,0.876 -4.358,-0.123Z" style="fill:#1a7950;"/></g><g><path d="M1102.17,519.643c-1.097,1.117 -2.74,1.073 -3.666,-0.099c-0.927,-1.172 -0.788,-3.03 0.309,-4.148c1.097,-1.117 2.74,-1.073 3.666,0.099c0.927,1.171 0.788,3.03 -0.309,4.148Z" style="fill:#1a7950;"/><path d="M1088.49,508.546c-1.097,1.117 -2.739,1.073 -3.666,-0.099c-0.926,-1.171 -0.788,-3.03 0.309,-4.148c1.097,-1.117 2.74,-1.073 3.666,0.099c0.927,1.171 0.788,3.03 -0.309,4.148Z" style="fill:#1a7950;"/><path d="M1086.32,529.783c-1.097,1.118 -2.74,1.074 -3.666,-0.098c-0.926,-1.172 -0.788,-3.031 0.309,-4.148c1.097,-1.118 2.74,-1.074 3.666,0.098c0.927,1.172 0.788,3.031 -0.309,4.148Z" style="fill:#1a7950;"/></g><g><path d="M513.42,459.555c-1.715,-0.25 -2.86,-1.515 -2.556,-2.825c0.304,-1.309 1.943,-2.17 3.657,-1.921c1.715,0.25 2.86,1.515 2.556,2.825c-0.304,1.309 -1.943,2.17 -3.657,1.921Z" style="fill:#1a7950;"/><path d="M493.433,434.481c-1.715,-0.249 -2.86,-1.515 -2.556,-2.824c0.304,-1.31 1.943,-2.171 3.657,-1.921c1.714,0.249 2.86,1.515 2.556,2.824c-0.304,1.31 -1.943,2.171 -3.657,1.921Z" style="fill:#1a7950;"/><path d="M495.305,468.713c-1.715,-0.25 -2.86,-1.515 -2.556,-2.825c0.304,-1.309 1.943,-2.17 3.657,-1.921c1.714,0.25 2.86,1.515 2.556,2.825c-0.304,1.31 -1.943,2.17 -3.657,1.921Z" style="fill:#1a7950;"/><path d="M512.769,443.44c-1.715,-0.249 -2.86,-1.515 -2.556,-2.824c0.304,-1.31 1.943,-2.17 3.657,-1.921c1.714,0.249 2.859,1.515 2.555,2.825c-0.304,1.309 -1.942,2.17 -3.656,1.92Z" style="fill:#1a7950;"/><path d="M493.622,452.83c-1.715,-0.249 -2.86,-1.515 -2.556,-2.825c0.304,-1.309 1.943,-2.17 3.657,-1.921c1.715,0.25 2.86,1.516 2.556,2.825c-0.304,1.31 -1.943,2.17 -3.657,1.921Z" style="fill:#1a7950;"/></g><g><path d="M1320.43,434.543c-0.961,-1.163 -0.617,-2.707 0.768,-3.446c1.385,-0.739 3.289,-0.395 4.251,0.768c0.961,1.163 0.617,2.707 -0.768,3.446c-1.385,0.739 -3.289,0.395 -4.251,-0.768Z" style="fill:#1a7950;"/><path d="M1334.44,422.916c-0.962,-1.163 -0.618,-2.707 0.767,-3.446c1.385,-0.739 3.29,-0.395 4.251,0.768c0.961,1.163 0.617,2.707 -0.767,3.446c-1.385,0.739 -3.29,0.395 -4.251,-0.768Z" style="fill:#1a7950;"/><path d="M1312.78,418.43c-0.961,-1.163 -0.617,-2.707 0.768,-3.446c1.385,-0.739 3.289,-0.395 4.251,0.768c0.961,1.162 0.617,2.706 -0.768,3.445c-1.385,0.74 -3.289,0.395 -4.251,-0.767Z" style="fill:#1a7950;"/></g><g><path d="M898.606,455.217c1.651,0.445 2.557,1.83 2.022,3.092c-0.535,1.262 -2.31,1.926 -3.96,1.481c-1.651,-0.444 -2.557,-1.829 -2.022,-3.091c0.535,-1.262 2.309,-1.926 3.96,-1.482Z" style="fill:#1a7950;"/><path d="M896.367,471.251c1.65,0.444 2.556,1.829 2.021,3.091c-0.535,1.262 -2.309,1.926 -3.96,1.482c-1.651,-0.444 -2.557,-1.829 -2.022,-3.091c0.535,-1.262 2.31,-1.926 3.961,-1.482Z" style="fill:#1a7950;"/><path d="M916.982,464.155c1.651,0.444 2.557,1.829 2.022,3.091c-0.535,1.262 -2.31,1.926 -3.96,1.482c-1.651,-0.445 -2.557,-1.83 -2.022,-3.092c0.535,-1.262 2.309,-1.925 3.96,-1.481Z" style="fill:#1a7950;"/><path d="M734.219,519.583c1.651,0.444 2.557,1.829 2.022,3.091c-0.535,1.262 -2.309,1.926 -3.96,1.482c-1.651,-0.445 -2.557,-1.83 -2.022,-3.092c0.535,-1.262 2.31,-1.926 3.96,-1.481Z" style="fill:#1a7950;"/></g><g><path d="M55.001,551.438c-0.883,1.209 -2.763,1.648 -4.194,0.979c-1.431,-0.669 -1.876,-2.193 -0.992,-3.402c0.883,-1.209 2.762,-1.648 4.193,-0.979c1.431,0.669 1.876,2.193 0.993,3.402Z" style="fill:#1a7950;"/><path d="M35.877,546.522c-0.884,1.209 -2.763,1.648 -4.194,0.979c-1.431,-0.668 -1.876,-2.193 -0.993,-3.402c0.884,-1.209 2.763,-1.647 4.194,-0.979c1.431,0.669 1.876,2.193 0.993,3.402Z" style="fill:#1a7950;"/><path d="M40.291,564.11c-0.884,1.209 -2.763,1.647 -4.194,0.979c-1.431,-0.669 -1.876,-2.193 -0.993,-3.402c0.884,-1.209 2.763,-1.648 4.194,-0.979c1.431,0.668 1.876,2.193 0.993,3.402Z" style="fill:#1a7950;"/></g><g><path d="M262.392,467.403c-0.883,1.209 -2.762,1.648 -4.194,0.979c-1.431,-0.668 -1.876,-2.193 -0.992,-3.401c0.883,-1.209 2.762,-1.648 4.193,-0.98c1.431,0.669 1.876,2.193 0.993,3.402Z" style="fill:#1a7950;"/><path d="M243.268,462.488c-0.884,1.208 -2.763,1.647 -4.194,0.979c-1.431,-0.669 -1.876,-2.193 -0.992,-3.402c0.883,-1.209 2.762,-1.648 4.193,-0.979c1.431,0.668 1.876,2.193 0.993,3.402Z" style="fill:#1a7950;"/><path d="M247.682,480.075c-0.884,1.209 -2.763,1.648 -4.194,0.979c-1.431,-0.668 -1.876,-2.193 -0.992,-3.402c0.883,-1.209 2.762,-1.647 4.193,-0.979c1.431,0.669 1.876,2.193 0.993,3.402Z" style="fill:#1a7950;"/></g></g></g></g><defs><linearGradient id="_Linear2" x1="0" y1="0" x2="1" y2="0" gradientUnits="userSpaceOnUse" gradientTransform="matrix(53.8573,282.832,-282.832,53.8573,876.474,524.14)"><stop offset="0" style="stop-color:#41c688;stop-opacity:1"/><stop offset="1" style="stop-color:#217b51;stop-opacity:1"/></linearGradient></defs></svg>